<svg width="20" height="21" viewBox="0 0 20 21" fill="none" xmlns="http://www.w3.org/2000/svg">
<mask id="mask0_2001_868" style="mask-type:alpha" maskUnits="userSpaceOnUse" x="0" y="0" width="20" height="21">
<rect y="0.5" width="20" height="20" fill="#D9D9D9"/>
</mask>
<g mask="url(#mask0_2001_868)">
<path d="M9.99992 10.5C10.4583 10.5 10.8506 10.3368 11.177 10.0104C11.5034 9.68399 11.6666 9.29163 11.6666 8.83329C11.6666 8.37496 11.5034 7.9826 11.177 7.65621C10.8506 7.32982 10.4583 7.16663 9.99992 7.16663C9.54159 7.16663 9.14922 7.32982 8.82284 7.65621C8.49645 7.9826 8.33325 8.37496 8.33325 8.83329C8.33325 9.29163 8.49645 9.68399 8.82284 10.0104C9.14922 10.3368 9.54159 10.5 9.99992 10.5ZM9.99992 16.625C11.6944 15.0694 12.9513 13.6562 13.7708 12.3854C14.5902 11.1145 14.9999 9.98607 14.9999 8.99996C14.9999 7.48607 14.5173 6.24649 13.552 5.28121C12.5867 4.31593 11.4027 3.83329 9.99992 3.83329C8.59714 3.83329 7.41311 4.31593 6.44784 5.28121C5.48256 6.24649 4.99992 7.48607 4.99992 8.99996C4.99992 9.98607 5.40964 11.1145 6.22909 12.3854C7.04853 13.6562 8.30547 15.0694 9.99992 16.625ZM9.99992 18.8333C7.76381 16.9305 6.09367 15.1632 4.9895 13.5312C3.88534 11.8993 3.33325 10.3888 3.33325 8.99996C3.33325 6.91663 4.00339 5.2569 5.34367 4.02079C6.68395 2.78468 8.23603 2.16663 9.99992 2.16663C11.7638 2.16663 13.3159 2.78468 14.6562 4.02079C15.9964 5.2569 16.6666 6.91663 16.6666 8.99996C16.6666 10.3888 16.1145 11.8993 15.0103 13.5312C13.9062 15.1632 12.236 16.9305 9.99992 18.8333Z" fill="#E8E9E9"/>
</g>
</svg>
